<svg xmlns="http://www.w3.org/2000/svg" version="1.1" xmlns:xlink="http://www.w3.org/1999/xlink" xmlns:svgjs="http://svgjs.dev/svgjs" width="1500" height="1162" viewBox="0 0 1500 1162"><g transform="matrix(1,0,0,1,-0.9068112794597027,-1.4906582771039893)"><svg viewBox="0 0 396 307" data-background-color="#500075" preserveAspectRatio="xMidYMid meet" height="1162" width="1500" xmlns="http://www.w3.org/2000/svg" xmlns:xlink="http://www.w3.org/1999/xlink"><g id="tight-bounds" transform="matrix(1,0,0,1,0.24060182222262938,3.8976671929648035)"><svg viewBox="0 0 395.52 302.6953236653704" height="302.6953236653704" width="395.52"><g><svg viewBox="0 0 395.52 302.6953236653704" height="302.6953236653704" width="395.52"><g transform="matrix(1,0,0,1,0,156.87322964307802)"><svg viewBox="0 0 395.52 145.82209402229236" height="145.82209402229236" width="395.52"><g id="textblocktransform"><svg viewBox="0 0 395.52 145.82209402229236" height="145.82209402229236" width="395.52" id="textblock"><g><svg viewBox="0 0 395.52 145.82209402229236" height="145.82209402229236" width="395.52"><g transform="matrix(1,0,0,1,0,0)"><svg width="395.52" viewBox="-9.055570000000003 -19.116330375278025 141.29886999999997 52.09469037527802" height="145.82209402229236" data-palette-color="#fad87b"><path d="M20.68-3.014v0c1.924 1.054 3.078 2.777 3.463 5.169 0.382 2.398-0.209 5.024-1.772 7.877v0c-2.187 3.994-4.984 6.665-8.391 8.014-3.416 1.352-6.656 1.189-9.72-0.489v0c-0.631-0.346-1.312-0.776-2.042-1.29v0l-4.488 8.716-6.786-2.246 11.838-20.219 0.044 0.024c2.081-4.09 3.723-7.873 4.927-11.348v0l6.091 1.808c-0.69 1.69-1.401 3.349-2.134 4.977v0c0.139-0.114 0.671-0.358 1.599-0.732 0.924-0.368 2.136-0.639 3.637-0.813 1.501-0.174 2.746 0.01 3.734 0.552zM15.722 1.875v0c-1.59-0.871-3.376-1.283-5.355-1.234v0l-2.124 3.876-3.35 6.534c1.478 1.159 2.635 1.968 3.471 2.426v0c2.883 1.579 5.421 0.366 7.615-3.64 2.197-4.011 2.111-6.665-0.257-7.962zM26.861 27.014c-1.943-0.554-3.353-1.625-4.231-3.214-0.886-1.584-1.031-3.421-0.435-5.511 0.596-2.09 2.068-3.629 4.415-4.616 2.347-0.987 4.887-1.092 7.618-0.312v0l3.356 0.957 0.239-0.837c0.461-1.616 0.448-2.812-0.038-3.588-0.49-0.785-1.639-1.435-3.447-1.95v0c-0.763-0.218-1.705-0.316-2.827-0.297-1.128 0.018-2.428 0.174-3.898 0.469v0l-0.32-4.313c1.698-0.583 3.67-0.981 5.915-1.194 2.253-0.217 4.039-0.138 5.36 0.24v0c5.167 1.474 7.037 4.714 5.609 9.721v0l-2.759 9.674c-0.527 1.846-0.536 4.069-0.03 6.667v0l-5.875 0.727c-0.371-1.811-0.577-3.398-0.617-4.762v0c-2.587 2.216-5.265 2.928-8.035 2.139zM30.375 22.567v0c1.314 0.375 3.003 0.129 5.067-0.739v0l0.944-3.308c-1.63-0.895-2.987-1.497-4.071-1.806v0c-2.077-0.592-3.379 0.035-3.906 1.881v0c-0.271 0.949-0.225 1.787 0.136 2.514 0.368 0.729 0.978 1.215 1.83 1.458zM63.727 19.797c0.155-2.362 0.052-3.948-0.309-4.76-0.354-0.812-1.283-1.267-2.787-1.365-1.503-0.098-3.252 0.388-5.247 1.46v0l-0.245 3.742-0.22 12.081-6.949 0.828 1.425-12.414c0.167-4.586 0.059-8.708-0.323-12.367v0l6.295-0.931c0.11 1.998 0.153 3.938 0.129 5.821v0c0.557-0.645 1.183-1.279 1.879-1.901 0.689-0.63 1.763-1.314 3.221-2.054 1.452-0.747 2.956-1.069 4.513-0.967 1.557 0.102 2.824 0.793 3.802 2.073 0.978 1.28 1.399 2.964 1.263 5.053v0l-0.686 5.718-0.236 12.331-7.01 0.833zM84.623 26.227v0c1.758-0.277 2.515-1.192 2.27-2.747v0c-0.085-0.54-0.543-0.988-1.375-1.342-0.839-0.354-1.845-0.681-3.019-0.983-1.174-0.301-2.354-0.659-3.54-1.072-1.193-0.42-2.254-1.096-3.184-2.03-0.922-0.928-1.489-2.067-1.702-3.417v0c-0.356-2.265 0.33-4.401 2.059-6.408 1.729-2.006 3.894-3.214 6.495-3.624v0c1.218-0.192 2.433-0.234 3.645-0.128 1.211 0.106 2.408 0.377 3.59 0.812v0l-2.434 6.73c-0.269-0.167-0.613-0.376-1.03-0.627-0.416-0.245-1.18-0.53-2.291-0.855-1.112-0.331-2.063-0.435-2.852-0.31-0.797 0.125-1.378 0.399-1.744 0.821-0.372 0.423-0.509 0.947-0.41 1.573 0.098 0.626 0.783 1.159 2.053 1.6 1.264 0.442 2.629 0.818 4.095 1.127 1.471 0.302 2.885 0.963 4.24 1.985 1.354 1.015 2.162 2.353 2.423 4.012v0c0.372 2.364-0.272 4.595-1.933 6.692-1.661 2.097-3.759 3.345-6.295 3.744v0c-1.627 0.256-3.197 0.142-4.71-0.342-1.515-0.491-2.634-1.043-3.358-1.658v0l-1.077-0.924 3.277-5.294c0.24 0.239 0.579 0.53 1.018 0.873 0.433 0.35 1.253 0.778 2.459 1.283 1.206 0.499 2.315 0.668 3.33 0.509zM109.67 10.437c-0.799-2.228-1.522-3.643-2.17-4.247-0.655-0.601-1.691-0.647-3.11-0.139-1.418 0.508-2.825 1.65-4.221 3.426v0l1.265 3.53 4.601 11.173-6.092 3.544-3.637-11.954-9.342-24.25 6.182-3.587 3.867 12.742 2.029 5.658c0.251-0.82 0.572-1.643 0.963-2.47 0.395-0.835 1.097-1.87 2.106-3.103 1.016-1.235 2.255-2.115 3.717-2.639 1.468-0.526 2.906-0.397 4.314 0.387 1.407 0.784 2.464 2.162 3.171 4.132v0l1.658 5.514 4.684 11.409-6.088 3.553zM114.563-5.002l5.325-4.541 5.842 11.395 6.513 10.178-5.325 4.54-5.695-11.121zM109.862-12.45c-0.572-0.994-0.7-2.105-0.383-3.333 0.322-1.231 0.989-2.138 2-2.72 1.005-0.579 1.935-0.748 2.788-0.508 0.847 0.243 1.587 0.914 2.219 2.011 0.632 1.098 0.795 2.258 0.49 3.479-0.305 1.221-0.954 2.118-1.948 2.69-0.994 0.572-1.962 0.694-2.903 0.367-0.936-0.33-1.69-0.993-2.263-1.986z" opacity="1" transform="matrix(1,0,0,1,0,0)" fill="#fad87b" class="wordmark-text-0" data-fill-palette-color="primary" id="text-0"></path></svg></g></svg></g></svg></g></svg></g><g transform="matrix(1,0,0,1,124.5045871801647,0)"><svg viewBox="0 0 146.51082563967057 145.82209402229236" height="145.82209402229236" width="146.51082563967057"><g><svg xmlns="http://www.w3.org/2000/svg" data-name="Layer 1" viewBox="0.49995735250847234 0.74 99.00006019342374 98.53467156920529" x="0" y="0" height="145.82209402229236" width="146.51082563967057" class="icon-icon-0" data-fill-palette-color="accent" id="icon-0"><path d="M88.09 0.74H42.29A11.42 11.42 0 0 0 30.88 12.14V31.86H11.06A10.57 10.57 0 0 0 0.5 42.42V75A10.57 10.57 0 0 0 11.06 85.6H15.72V96.76A2.5 2.5 0 0 0 20 98.53L33 85.6H51.59A10.57 10.57 0 0 0 62.15 75V59.59H64L78.42 73.95A2.5 2.5 0 0 0 82.69 72.18V59.59H88.1A11.42 11.42 0 0 0 99.5 48.18V12.18A11.42 11.42 0 0 0 88.09 0.74M57.15 75A5.57 5.57 0 0 1 51.59 80.56H31.91A2.5 2.5 0 0 0 30.14 81.29L20.72 90.69V83.1A2.5 2.5 0 0 0 18.22 80.6H11.06A5.57 5.57 0 0 1 5.5 75V42.42A5.57 5.57 0 0 1 11.06 36.86H30.89V48.18A11.42 11.42 0 0 0 42.29 59.59H57.15ZM94.5 48.18A6.41 6.41 0 0 1 88.09 54.59H80.18A2.5 2.5 0 0 0 77.68 57.09V66.15L66.83 55.32A2.5 2.5 0 0 0 65.06 54.59H42.29A6.41 6.41 0 0 1 35.88 48.18V12.18A6.41 6.41 0 0 1 42.29 5.78H88.09A6.41 6.41 0 0 1 94.5 12.18Z" fill="#f53391" data-fill-palette-color="accent"></path><path d="M73.94 15.88A9.4 9.4 0 0 0 65.46 18.45 9.4 9.4 0 0 0 57 15.88 10.73 10.73 0 0 0 48.71 24.88C48.17 28.42 48.61 37.58 64.28 46.13A2.5 2.5 0 0 0 66.67 46.13C82.35 37.58 82.78 28.42 82.24 24.88A10.73 10.73 0 0 0 73.94 15.88M65.45 41.11C57.27 36.36 52.87 30.64 53.62 25.67A5.72 5.72 0 0 1 57.94 20.77 4.5 4.5 0 0 1 58.81 20.68C60.53 20.68 62.11 21.68 63.31 23.68A2.5 2.5 0 0 0 67.59 23.68C68.99 21.37 70.89 20.33 72.96 20.74A5.73 5.73 0 0 1 77.28 25.64C78 30.65 73.64 36.36 65.45 41.11" fill="#f53391" data-fill-palette-color="accent"></path></svg></g></svg></g><g></g></svg></g><defs></defs></svg><rect width="395.52" height="302.6953236653704" fill="none" stroke="none" visibility="hidden"></rect></g></svg></g></svg>